<?xml version="1.0" encoding="UTF-8" standalone="no"?>
<!-- Created with Inkscape (http://www.inkscape.org/) -->

<svg
   xmlns:dc="http://purl.org/dc/elements/1.1/"
   xmlns:cc="http://creativecommons.org/ns#"
   xmlns:rdf="http://www.w3.org/1999/02/22-rdf-syntax-ns#"
   xmlns:svg="http://www.w3.org/2000/svg"
   xmlns="http://www.w3.org/2000/svg"
   xmlns:sodipodi="http://sodipodi.sourceforge.net/DTD/sodipodi-0.dtd"
   xmlns:inkscape="http://www.inkscape.org/namespaces/inkscape"
   id="svg2"
   xml:space="preserve"
   viewBox="0 0 83.693 70.769"
   version="1.1"
   inkscape:version="0.92.3 (2405546, 2018-03-11)"
   sodipodi:docname="food.svg"><sodipodi:namedview
     pagecolor="#ffffff"
     bordercolor="#666666"
     borderopacity="1"
     objecttolerance="10"
     gridtolerance="10"
     guidetolerance="10"
     inkscape:pageopacity="0"
     inkscape:pageshadow="2"
     inkscape:window-width="1362"
     inkscape:window-height="717"
     id="namedview4348"
     showgrid="false"
     inkscape:zoom="7.602199"
     inkscape:cx="34.809063"
     inkscape:cy="35.384499"
     inkscape:window-x="0"
     inkscape:window-y="49"
     inkscape:window-maximized="0"
     inkscape:current-layer="g12"
     showguides="false" /><defs
     id="defs6"><linearGradient
       id="linearGradient44"
       y2="4.3066"
       gradientUnits="userSpaceOnUse"
       x2="34.57"
       gradientTransform="matrix(.95456 -1.1338 -1.1338 -.95456 .03404 56.588)"
       y1="4.3066"
       x1="26.922"><stop
         id="stop46"
         style="stop-color:#fa9600"
         offset="0" /><stop
         id="stop48"
         style="stop-color:#d47200"
         offset="1" /></linearGradient><clipPath
       id="clipPath56"><path
         id="path58"
         d="m1 0.61505h48v41h-48v-41z"
         inkscape:connector-curvature="0" /></clipPath><mask
       id="mask60"><g
         id="g62"><g
           id="g64"
           clip-path="url(#clipPath56)"><path
             id="path66"
             style="fill:#000000;fill-opacity:.10940"
             d="m1 0.61505h48v41h-48v-41z"
             inkscape:connector-curvature="0" /></g></g></mask><clipPath
       id="clipPath72"><path
         id="path74"
         d="m1 0.61505h48v41h-48v-41z"
         inkscape:connector-curvature="0" /></clipPath><clipPath
       id="clipPath76"><path
         id="path78"
         d="m1 1h48v41h-48v-41z"
         inkscape:connector-curvature="0" /></clipPath><clipPath
       id="clipPath112"><path
         id="path114"
         d="m0-0.38495h49v39h-49v-39z"
         inkscape:connector-curvature="0" /></clipPath><mask
       id="mask116"><g
         id="g118"><g
           id="g120"
           clip-path="url(#clipPath112)"><path
             id="path122"
             style="fill:#000000;fill-opacity:.23050"
             d="m0-0.38495h49v39h-49v-39z"
             inkscape:connector-curvature="0" /></g></g></mask><clipPath
       id="clipPath128"><path
         id="path130"
         d="m0-0.38495h49v39h-49v-39z"
         inkscape:connector-curvature="0" /></clipPath><clipPath
       id="clipPath132"><path
         id="path134"
         d="m0 0h49v39h-49v-39z"
         inkscape:connector-curvature="0" /></clipPath><clipPath
       id="clipPath156"><path
         id="path158"
         d="m16 15.615h24v24h-24v-24z"
         inkscape:connector-curvature="0" /></clipPath><mask
       id="mask160"><g
         id="g162"><g
           id="g164"
           clip-path="url(#clipPath156)"><path
             id="path166"
             style="fill:#000000;fill-opacity:.26950"
             d="m16 15.615h24v24h-24v-24z"
             inkscape:connector-curvature="0" /></g></g></mask><clipPath
       id="clipPath172"><path
         id="path174"
         d="m16 15.615h24v24h-24v-24z"
         inkscape:connector-curvature="0" /></clipPath><clipPath
       id="clipPath176"><path
         id="path178"
         d="m16 16h24v24h-24v-24z"
         inkscape:connector-curvature="0" /></clipPath></defs><g
     id="g10"
     transform="matrix(1.25 0 0 -1.25 0 70.769)"><g
       id="g12"><path
         id="path14"
         style="fill-rule:evenodd;fill:#1ea082;fill-opacity:1"
         d="m61.098 40.209c-0.789-0.395-1.16 0.101-1.11 1.484l0.371 2.223c-2.421-3.508-3.632-4.445-3.632-2.817l0.074 3.485c-0.348 0.097-0.789 0.148-1.336 0.148-1.086-0.101-2.051-0.543-2.887-1.336-0.148-0.148-1.383-1.828-3.707-5.039-1.828-2.519-3.383-3.902-4.668-4.148-1.336-0.25-1.879 0.047-1.633 0.887l0.817 1.41c0.941 0.05 2.152 0.965 3.633 2.742 1.234 1.48 2.371 3.187 3.41 5.113 0.886 1.68 2.445 3.262 4.668 4.742 2.32 1.582 4.347 2.348 6.074 2.301 3.758 0 5.312-0.422 4.672-1.262-0.297-0.347-0.594-0.519-0.891-0.519l-0.445 0.074 1.262-0.519c0.789-0.59 1.183-1.457 1.183-2.594-0.051-1.133-0.492-1.578-1.332-1.332l-1.336 0.742c-0.789-3.266-1.851-5.191-3.187-5.785z"
         inkscape:connector-curvature="0" /><path
         id="path16"
         style="fill:#1ea082;fill-opacity:1;fill-rule:evenodd"
         d="m 60.054084,48.755528 c -0.453212,-1.226129 -1.382932,-1.805635 -2.795725,-1.735537 -1.212766,0.05516 -2.382881,0.339191 -3.51971,0.853604 l -1.262372,0.842462 0.629654,-1.546707 c 0.287301,-1.156811 0.0018,-2.026233 -0.851057,-2.617492 -0.853965,-0.590433 -1.679443,-0.598652 -2.472826,-0.02812 l -0.9853,0.963728 C 48.347689,42.108836 47.0614,38.645085 44.937879,35.096214 43.598665,32.87418 41.968437,31.056511 40.04637,29.642059 l -2.404442,-1.370665 0.195457,3.864088 2.955515,1.681597 c 2.183091,1.65874 3.719107,3.885572 4.614975,6.687707 0.976602,2.909559 1.337661,4.674884 1.087245,5.283469 -0.64055,0.242887 -1.209862,0.502481 -1.700561,0.770866 -0.657985,0.343391 -1.047063,1.031658 -1.16526,2.065123 -0.158836,0.972109 0.05865,1.482864 0.648506,1.531619 l 1.110529,0.105457 c -0.191516,0.570585 -0.318566,1.199326 -0.383608,1.888862 -0.134521,1.431036 0.137113,2.528197 0.812422,3.288037 1.062479,1.174703 1.55632,0.60184 1.483029,-1.709224 l 1.649218,1.844078 c 1.35247,1.223098 2.564698,1.772768 3.637992,1.647198 1.069188,-0.125224 1.191618,-0.7071 0.360226,-1.745759 l -1.550886,-1.528085 2.476199,0.931488 c 1.764409,0.537554 2.987296,0.563083 3.664373,0.07184 1.09657,-0.869553 0.07521,-1.985859 -3.053397,-3.352243 l 4.491515,-0.84174 c 1.122641,-0.117508 1.477597,-0.782978 1.078664,-2.000239 z"
         inkscape:connector-curvature="0" /><g
         id="g34"
         style="fill:#1ea082;fill-opacity:1"><g
           id="g36"
           style="fill:#1ea082;fill-opacity:1"><g
             id="g42"
             style="fill:#1ea082;fill-opacity:1"><path
               id="path50"
               style="fill-rule:evenodd;fill:#1ea082;fill-opacity:1"
               d="m45.535 38.951c4.051-3.707 4.078-7.734 0.074-12.082-1.332-1.383-4.297-3.481-8.89-6.297-1.731-1.086-5.684-3.41-11.86-6.969-2.668-1.582-6.199-3.48-10.597-5.707-4.446-2.222-6.965-3.508-7.559-3.851-0.937-0.594-2.469-1.657-4.594-3.188-1.582-1.086-2.273-1.133-2.078-0.148 0.149 0.691 1.285 2.125 3.41 4.301 2.621 2.566 4.473 4.394 5.559 5.48 5.434 5.336 9.34 9.66 11.711 12.969 3.359 4.894 5.309 7.683 5.851 8.375 2.372 3.215 4.227 5.187 5.559 5.929 5.981 3.508 10.449 3.903 13.414 1.188z"
               inkscape:connector-curvature="0" /></g></g></g></g></g><metadata
     id="metadata4346"><rdf:RDF><cc:Work><dc:format>image/svg+xml</dc:format><dc:type
           rdf:resource="http://purl.org/dc/dcmitype/StillImage" /><cc:license
           rdf:resource="http://creativecommons.org/publicdomain/zero/1.0/" /><dc:publisher><cc:Agent
             rdf:about="http://openclipart.org/"><dc:title>Openclipart</dc:title></cc:Agent></dc:publisher><dc:title /></cc:Work><cc:License
         rdf:about="http://creativecommons.org/publicdomain/zero/1.0/"><cc:permits
           rdf:resource="http://creativecommons.org/ns#Reproduction" /><cc:permits
           rdf:resource="http://creativecommons.org/ns#Distribution" /><cc:permits
           rdf:resource="http://creativecommons.org/ns#DerivativeWorks" /></cc:License></rdf:RDF></metadata></svg>