<?xml version="1.0" encoding="UTF-8" standalone="no"?>
<!-- Created with Inkscape (http://www.inkscape.org/) -->

<svg
   xmlns:dc="http://purl.org/dc/elements/1.1/"
   xmlns:cc="http://creativecommons.org/ns#"
   xmlns:rdf="http://www.w3.org/1999/02/22-rdf-syntax-ns#"
   xmlns:svg="http://www.w3.org/2000/svg"
   xmlns="http://www.w3.org/2000/svg"
   xmlns:sodipodi="http://sodipodi.sourceforge.net/DTD/sodipodi-0.dtd"
   xmlns:inkscape="http://www.inkscape.org/namespaces/inkscape"
   id="svg4670"
   sodipodi:docname="gifts.svg"
   viewBox="0 0 230.31496 113.38582"
   version="1.1"
   inkscape:version="0.92.3 (2405546, 2018-03-11)"
   width="65mm"
   height="32mm">
  <defs
     id="defs3394" />
  <sodipodi:namedview
     id="base"
     bordercolor="#666666"
     inkscape:pageshadow="2"
     inkscape:window-y="49"
     pagecolor="#ffffff"
     inkscape:window-maximized="0"
     inkscape:zoom="2.1939272"
     inkscape:window-x="0"
     inkscape:window-height="717"
     showgrid="false"
     borderopacity="1.0"
     inkscape:current-layer="layer1"
     inkscape:cx="150.65681"
     inkscape:cy="89.712049"
     inkscape:window-width="1362"
     inkscape:pageopacity="0.0"
     inkscape:document-units="mm"
     units="mm" />
  <g
     id="layer1"
     inkscape:label="Layer 1"
     inkscape:groupmode="layer"
     transform="translate(-7.5443,-53.154175)">
    <path
       id="path4650"
       style="fill:#1ea082;fill-opacity:1"
       d="m 29.538453,61.588452 c -1.7778,0.0455 -3.4807,0.23917 -5.4884,0.92575 -1.2874,0.47169 -5.775,3.4596 -2.9755,10.514 1.3939,3.5124 4.8098,6.101 8.001,7.8688 l -12.432,0 c -3.5168,0 -6.3479,2.8312 -6.3479,6.348 l 0,16.927998 29.095,0 0,-19.307998 6.348,0 0,19.307998 29.095,0 0,-16.927998 c 0,-3.5168 -2.831,-6.348 -6.3479,-6.348 l -12.432,0 c 3.2039,-1.7678 6.6087,-4.3603 8.0011,-7.8688 2.7996,-7.0543 -1.6882,-10.042 -2.9755,-10.514 -3.5691,-1.2215 -6.2813,-1.0752 -9.8527,-0.66121 -2.5423,0.23062 -5.9273,1.1188 -8.6624,4.1658 -2.7349,-3.047 -6.1201,-3.9351 -8.6623,-4.1658 -0.89299,-0.10351 -1.6984,-0.25745 -2.5128,-0.26454 -0.6107,-0.008 -1.2589,-0.0149 -1.8514,0 z m 1.058,2.9756 c 1.9068,-0.0639 4.1002,0.39182 5.8851,2.3805 3.0808,3.4318 2.7728,9.9927 2.2483,13.952 l -1.6532,0 c -3.6782,-1.6946 -8.3003,-4.484 -9.9848,-8.7284 -2.1023,-5.2975 -0.83408,-7.3259 1.7192,-7.406 0.55158,-0.10667 1.1499,-0.17717 1.7854,-0.19824 z m 22.945,0 c 0.9891,-0.0718 1.95,0.0385 2.7774,0.19833 2.5532,0.0796 3.7554,2.3068 1.653,7.6043 -1.6738,4.218 -6.1981,6.8713 -9.8524,8.5301 l -1.7193,0 c -0.52464,-3.9604 -0.83269,-10.521 2.2483,-13.952 1.4872,-1.6572 3.2449,-2.26 4.8931,-2.3805 z m -43.246,45.956998 0,16.862 c 0,3.5166 2.8312,6.348 6.3479,6.348 l 22.747,0 0,-23.21 -29.095,0 z m 35.443,0 0,23.21 22.747,0 c 3.5169,0 6.3479,-2.8313 6.3479,-6.348 l 0,-16.862 -29.095,0 z"
       inkscape:export-ydpi="90"
       inkscape:export-filename="C:\Users\Admin\Desktop\headerdelivery.png"
       inkscape:connector-curvature="0"
       inkscape:export-xdpi="90" />
    <rect
       style="fill:none;fill-opacity:1;stroke:#1ea082;stroke-width:2.78634524;stroke-linejoin:miter;stroke-miterlimit:0;stroke-dasharray:none;stroke-opacity:1"
       id="rect4761"
       width="17.566961"
       height="18.356487"
       x="105.66481"
       y="71.941574"
       ry="0" />
    <rect
       style="fill:none;fill-opacity:1;stroke:#1ea082;stroke-width:2.78634524;stroke-linejoin:miter;stroke-miterlimit:0;stroke-dasharray:none;stroke-opacity:1"
       id="rect4761-3"
       width="17.566961"
       height="18.356487"
       x="105.66481"
       y="107.37464"
       ry="0" />
    <rect
       style="fill:none;fill-opacity:1;stroke:#1ea082;stroke-width:2.78634524;stroke-linejoin:miter;stroke-miterlimit:0;stroke-dasharray:none;stroke-opacity:1"
       id="rect4761-3-6"
       width="17.566961"
       height="18.356487"
       x="105.66481"
       y="142.80772"
       ry="0" />
    <text
       xml:space="preserve"
       style="font-style:normal;font-weight:normal;line-height:0%;font-family:sans-serif;letter-spacing:0px;word-spacing:0px;fill:#1ea082;fill-opacity:1;stroke:none;stroke-width:1px;stroke-linecap:butt;stroke-linejoin:miter;stroke-opacity:1;"
       x="131.08002"
       y="86.028587"
       id="text4793"><tspan
         sodipodi:role="line"
         id="tspan4795"
         x="131.08002"
         y="86.028587"
         style="font-style:normal;font-variant:normal;font-weight:normal;font-stretch:normal;font-size:18.75px;line-height:1.25;font-family:'Liberation Sans';-inkscape-font-specification:'Liberation Sans';fill:#1ea082;fill-opacity:1;">Monday</tspan></text>
    <text
       xml:space="preserve"
       style="font-style:normal;font-weight:normal;line-height:0%;font-family:sans-serif;letter-spacing:0px;word-spacing:0px;fill:#1ea082;fill-opacity:1;stroke:none;stroke-width:1px;stroke-linecap:butt;stroke-linejoin:miter;stroke-opacity:1;"
       x="131.08002"
       y="121.46166"
       id="text4793-4"><tspan
         sodipodi:role="line"
         id="tspan4795-1"
         x="131.08002"
         y="121.46166"
         style="font-style:normal;font-variant:normal;font-weight:normal;font-stretch:normal;font-size:18.75px;line-height:1.25;font-family:'Liberation Sans';-inkscape-font-specification:'Liberation Sans';fill:#1ea082;fill-opacity:1;">Tuesday</tspan></text>
    <text
       xml:space="preserve"
       style="font-style:normal;font-weight:normal;line-height:0%;font-family:sans-serif;letter-spacing:0px;word-spacing:0px;fill:#1ea082;fill-opacity:1;stroke:none;stroke-width:1px;stroke-linecap:butt;stroke-linejoin:miter;stroke-opacity:1;"
       x="131.08002"
       y="156.89473"
       id="text4793-4-9"><tspan
         sodipodi:role="line"
         id="tspan4795-1-0"
         x="131.08002"
         y="156.89473"
         style="font-style:normal;font-variant:normal;font-weight:normal;font-stretch:normal;font-size:18.75px;line-height:1.25;font-family:'Liberation Sans';-inkscape-font-specification:'Liberation Sans';fill:#1ea082;fill-opacity:1;">Wednesday</tspan></text>
    <path
       style="fill:none;fill-rule:evenodd;stroke:#1ea082;stroke-width:3.54330707;stroke-linecap:round;stroke-linejoin:miter;stroke-miterlimit:4;stroke-dasharray:none;stroke-opacity:1"
       d="m 108.26328,79.939552 c 0,0 4.48982,6.068816 6.15375,5.933966 2.61185,-0.211676 9.71434,-18.812702 9.71434,-18.812702"
       id="path4833"
       inkscape:connector-curvature="0"
       sodipodi:nodetypes="csc" />
    <path
       style="fill:none;fill-rule:evenodd;stroke:#1ea082;stroke-width:3.54330707;stroke-linecap:round;stroke-linejoin:miter;stroke-miterlimit:4;stroke-dasharray:none;stroke-opacity:1"
       d="m 108.32613,115.41607 c 0,0 4.48982,6.06881 6.15375,5.93396 2.61185,-0.21167 9.71434,-18.8127 9.71434,-18.8127"
       id="path4833-9"
       inkscape:connector-curvature="0"
       sodipodi:nodetypes="csc" />
  </g>
  <metadata
     id="metadata10">
    <rdf:RDF>
      <cc:Work>
        <dc:format>image/svg+xml</dc:format>
        <dc:type
           rdf:resource="http://purl.org/dc/dcmitype/StillImage" />
        <cc:license
           rdf:resource="http://creativecommons.org/publicdomain/zero/1.0/" />
        <dc:publisher>
          <cc:Agent
             rdf:about="http://openclipart.org/">
            <dc:title>Openclipart</dc:title>
          </cc:Agent>
        </dc:publisher>
        <dc:title />
      </cc:Work>
      <cc:License
         rdf:about="http://creativecommons.org/publicdomain/zero/1.0/">
        <cc:permits
           rdf:resource="http://creativecommons.org/ns#Reproduction" />
        <cc:permits
           rdf:resource="http://creativecommons.org/ns#Distribution" />
        <cc:permits
           rdf:resource="http://creativecommons.org/ns#DerivativeWorks" />
      </cc:License>
    </rdf:RDF>
  </metadata>
</svg>
