<?xml version="1.0" encoding="UTF-8" standalone="no"?>
<svg
   xmlns:dc="http://purl.org/dc/elements/1.1/"
   xmlns:cc="http://creativecommons.org/ns#"
   xmlns:rdf="http://www.w3.org/1999/02/22-rdf-syntax-ns#"
   xmlns:svg="http://www.w3.org/2000/svg"
   xmlns="http://www.w3.org/2000/svg"
   xmlns:sodipodi="http://sodipodi.sourceforge.net/DTD/sodipodi-0.dtd"
   xmlns:inkscape="http://www.inkscape.org/namespaces/inkscape"
   id="svg4773"
   viewBox="0 0 357.08 379.82"
   version="1.1"
   inkscape:version="0.92.3 (2405546, 2018-03-11)"
   sodipodi:docname="tshirt.svg">
  <defs
     id="defs3390" />
  <sodipodi:namedview
     pagecolor="#ffffff"
     bordercolor="#666666"
     borderopacity="1"
     objecttolerance="10"
     gridtolerance="10"
     guidetolerance="10"
     inkscape:pageopacity="0"
     inkscape:pageshadow="2"
     inkscape:window-width="1362"
     inkscape:window-height="717"
     id="namedview3388"
     showgrid="false"
     inkscape:zoom="0.7082302"
     inkscape:cx="18.142064"
     inkscape:cy="230.11254"
     inkscape:window-x="0"
     inkscape:window-y="49"
     inkscape:window-maximized="0"
     inkscape:current-layer="layer1" />
  <g
     id="layer1"
     transform="translate(-189.9 -222.14)">
    <path
       id="path4834"
       style="fill:#1ea082;fill-opacity:1;stroke-width:0.89702445"
       d="m 348.09319,581.80884 c -9.6206,-0.37505 -24.15239,-1.32599 -32.29289,-2.11304 -32.87415,-3.1786 -30.8092,-2.75305 -34.98395,-7.21055 -2.07841,-2.21923 -2.26642,-3.16111 -2.56792,-12.86513 -0.17895,-5.75871 0.1441,-14.91034 0.71789,-20.33734 1.10172,-10.42073 2.89962,-84.12026 3.0854,-126.48045 0.113,-25.76075 -0.7612,-35.9025 -3.67296,-42.60867 l -1.3632,-3.13958 -9.66903,10.14894 c -7.76016,8.14552 -10.17405,10.16239 -12.22734,10.2189 -2.49741,0.0685 -11.49089,-3.88089 -20.4997,-9.00253 -2.46683,-1.40233 -6.50343,-3.69565 -8.97025,-5.09618 -2.46682,-1.40052 -6.44081,-3.56226 -8.8312,-4.80384 -9.28959,-4.82518 -10.95358,-10.99213 -5.29945,-19.64394 1.84868,-2.82921 3.56424,-5.34591 3.81235,-5.59259 0.24808,-0.24667 1.58173,-2.56297 2.96369,-5.1473 3.57859,-6.69226 14.64302,-23.61686 17.44623,-26.68648 0.6167,-0.67534 1.12128,-1.46206 1.12128,-1.74822 0,-0.83062 4.83173,-7.30293 14.18375,-18.99897 7.35327,-9.19719 9.72643,-11.50344 15.41805,-14.98928 3.70023,-2.26597 9.55331,-5.16318 13.00686,-6.4383 3.45354,-1.27512 8.49931,-3.3529 11.2128,-4.61726 2.71351,-1.26436 7.85085,-3.45848 11.41643,-4.87587 6.48882,-2.57948 23.26434,-11.0612 24.86822,-12.57269 0.46869,-0.44183 1.76489,-0.80332 2.88034,-0.80332 1.11554,0 2.80016,-0.82855 3.74365,-1.84123 2.90546,-3.11869 6.2205,-3.43282 12.78619,-1.21162 9.04739,3.06092 28.05174,4.5786 39.16139,3.12739 4.81271,-0.62866 10.99752,-1.91173 13.74332,-2.85137 6.26921,-2.14478 9.86995,-2.16362 12.60229,-0.0657 1.17663,0.9034 7.18508,4.09134 13.35221,7.08435 11.74654,5.70058 31.46583,15.04578 34.53545,16.36621 22.22109,9.56049 25.28532,12.23452 36.96458,32.257 2.75279,4.71943 5.75145,9.67082 6.66364,11.002 0.91218,1.33182 3.63016,6.37758 6.04002,11.21281 2.40986,4.83524 7.71441,15.25032 11.7878,23.14414 4.50854,8.73674 7.3817,15.36333 7.34323,16.93492 -0.0595,2.42887 -3.99957,7.73297 -5.74446,7.73297 -0.41087,0 -2.45453,1.08514 -4.54155,2.41139 -4.0568,2.57805 -11.40118,6.61403 -22.05335,12.11969 -9.12812,4.71773 -13.4464,4.71647 -17.95215,-0.006 -1.79207,-1.87828 -4.26257,-4.80483 -5.48996,-6.50343 -2.64964,-3.66668 -8.88755,-9.81614 -9.95788,-9.81614 -1.38545,0 -2.5793,3.36232 -4.5123,12.70815 -2.8407,13.73434 -3.38519,24.02232 -2.48476,46.94398 0.44579,11.34736 1.19009,37.58533 1.65394,58.3066 0.46385,20.72126 1.27207,47.79615 1.79602,60.16612 0.68037,16.06212 0.67594,23.28496 -0.0156,25.26828 -1.44044,4.13197 -5.78778,5.7772 -18.78369,7.10874 -43.68778,4.47633 -46.87581,4.71476 -61.44618,4.59599 -7.40045,-0.0601 -21.32675,-0.41657 -30.94734,-0.79171 z"
       inkscape:connector-curvature="0" />
  </g>
  <metadata
     id="metadata3386">
    <rdf:RDF>
      <cc:Work>
        <dc:format>image/svg+xml</dc:format>
        <dc:type
           rdf:resource="http://purl.org/dc/dcmitype/StillImage" />
        <cc:license
           rdf:resource="http://creativecommons.org/licenses/publicdomain/" />
        <dc:publisher>
          <cc:Agent
             rdf:about="http://openclipart.org/">
            <dc:title>Openclipart</dc:title>
          </cc:Agent>
        </dc:publisher>
        <dc:title />
        <dc:date>2011-02-08T23:40:04</dc:date>
        <dc:description>A black t-shirt.</dc:description>
        <dc:source>https://openclipart.org/detail/117511/black-t-shirt-by-körnerbrötchen</dc:source>
        <dc:creator>
          <cc:Agent>
            <dc:title>Körnerbrötchen</dc:title>
          </cc:Agent>
        </dc:creator>
        <dc:subject>
          <rdf:Bag>
            <rdf:li>black</rdf:li>
            <rdf:li>shirt</rdf:li>
            <rdf:li>t-shirt</rdf:li>
          </rdf:Bag>
        </dc:subject>
      </cc:Work>
      <cc:License
         rdf:about="http://creativecommons.org/licenses/publicdomain/">
        <cc:permits
           rdf:resource="http://creativecommons.org/ns#Reproduction" />
        <cc:permits
           rdf:resource="http://creativecommons.org/ns#Distribution" />
        <cc:permits
           rdf:resource="http://creativecommons.org/ns#DerivativeWorks" />
      </cc:License>
    </rdf:RDF>
  </metadata>
</svg>
